#Comment line ignore any data following # character 
#Hierarchical Translation and Rotation (.htr) file 
[Header]	
#Header keywords are followed by a single value 
FileType HTR		#Single word string
DataType HTRS		#Translation followed by rotation and scale data
FileVersion 1		#integer
NumSegments 84		#integer
NumFrames 2		#integer
DataFrameRate 30		#integer, data frame rate in this file
EulerRotationOrder ZYX
CalibrationUnits mm
RotationUnits Degrees
GlobalAxisofGravity Y
BoneLengthAxis Y
ScaleFactor 1.00
[SegmentNames&Hierarchy]
#CHILD	PARENT
MASTER GLOBAL
root MASTER
chest root
L_mid_tent01 root
R_mid_tent01 root
spine01 root
Bip01_Neck chest
L_humerus chest
R_humerus chest
weapon_bone chest
Bip01_Head Bip01_Neck
eye_left_bone Bip01_Head
eye_right_bone Bip01_Head
L_forearm L_humerus
L_front_hand L_forearm
L_weapon_bone L_forearm
L_front_hand01_01 L_front_hand
L_front_hand02_01 L_front_hand
L_front_hand03_01 L_front_hand
L_front_hand01_02 L_front_hand01_01
L_front_hand02_02 L_front_hand02_01
L_front_hand03_02 L_front_hand03_01
R_forearm R_humerus
R_front_hand R_forearm
R_weapon_bone R_forearm
R_front_hand01_01 R_front_hand
R_front_hand02_01 R_front_hand
R_front_hand03_01 R_front_hand
R_front_hand01_02 R_front_hand01_01
R_front_hand02_02 R_front_hand02_01
R_front_hand03_02 R_front_hand03_01
null_rope01_connect L_mid_tent01
Rope1_Seg01 null_rope01_connect
Rope1_Seg02 Rope1_Seg01
Rope1_Seg03 Rope1_Seg02
Rope1_Seg04 Rope1_Seg03
Rope1_Seg05 Rope1_Seg04
Rope1_Seg06 Rope1_Seg05
Rope1_Seg07 Rope1_Seg06
Rope1_Seg09 Rope1_Seg07
L_mid_hand01 Rope1_Seg09
L_mid_hand02 Rope1_Seg09
L_mid_hand03 Rope1_Seg09
null_rope02_connect R_mid_tent01
Rope2_Seg01 null_rope02_connect
Rope2_Seg02 Rope2_Seg01
Rope2_Seg03 Rope2_Seg02
Rope2_Seg04 Rope2_Seg03
Rope2_Seg05 Rope2_Seg04
Rope2_Seg06 Rope2_Seg05
Rope2_Seg07 Rope2_Seg06
Rope2_Seg09 Rope2_Seg07
R_mid_hand01 Rope2_Seg09
R_mid_hand02 Rope2_Seg09
R_mid_hand03 Rope2_Seg09
spine02 spine01
spine03 spine02
pelvis spine03
null_rope03_connect pelvis
null_rope04_connect pelvis
Rope3_Seg01 null_rope03_connect
Rope3_Seg02 Rope3_Seg01
Rope3_Seg03 Rope3_Seg02
Rope3_Seg04 Rope3_Seg03
Rope3_Seg05 Rope3_Seg04
Rope3_Seg06 Rope3_Seg05
Rope3_Seg07 Rope3_Seg06
Rope3_Seg08 Rope3_Seg07
Rope3_Seg09 Rope3_Seg08
R_rear_hand01 Rope3_Seg09
R_rear_hand02 Rope3_Seg09
R_rear_hand03 Rope3_Seg09
Rope4_Seg01 null_rope04_connect
Rope4_Seg02 Rope4_Seg01
Rope4_Seg03 Rope4_Seg02
Rope4_Seg04 Rope4_Seg03
Rope4_Seg05 Rope4_Seg04
Rope4_Seg06 Rope4_Seg05
Rope4_Seg07 Rope4_Seg06
Rope4_Seg08 Rope4_Seg07
Rope4_Seg09 Rope4_Seg08
L_rear_hand01 Rope4_Seg09
L_rear_hand02 Rope4_Seg09
L_rear_hand03 Rope4_Seg09
[BasePosition]
#SegmentName Tx, Ty, Tz, Rx, Ry, Rz, BoneLength
MASTER 0.000000 0.000000 0.000000 -90.000000 0.000000 0.000000 10.000000 
root 0.000000 0.000000 0.000000 0.000000 0.000000 0.000000 10.000000 
chest 0.000000 0.000000 0.000000 0.000000 0.000000 0.000000 10.000000 
L_mid_tent01 0.000000 0.000000 0.000000 0.000000 0.000000 0.000000 10.000000 
R_mid_tent01 0.000000 0.000000 0.000000 0.000000 0.000000 0.000000 10.000000 
spine01 0.000000 0.000000 0.000000 0.000000 0.000000 0.000000 10.000000 
Bip01_Neck 0.000000 0.000000 0.000000 0.000000 0.000000 0.000000 10.000000 
L_humerus 0.000000 0.000000 0.000000 0.000000 0.000000 0.000000 10.000000 
R_humerus 0.000000 0.000000 0.000000 0.000000 0.000000 0.000000 10.000000 
weapon_bone 0.000000 0.000000 0.000000 0.000000 0.000000 0.000000 10.000000 
Bip01_Head 0.000000 0.000000 0.000000 0.000000 0.000000 0.000000 10.000000 
eye_left_bone 0.000000 0.000000 0.000000 0.000000 0.000000 0.000000 10.000000 
eye_right_bone 0.000000 0.000000 0.000000 0.000000 0.000000 0.000000 10.000000 
L_forearm 0.000000 0.000000 0.000000 0.000000 0.000000 0.000000 10.000000 
L_front_hand 0.000000 0.000000 0.000000 0.000000 0.000000 0.000000 10.000000 
L_weapon_bone 0.000000 0.000000 0.000000 0.000000 0.000000 0.000000 10.000000 
L_front_hand01_01 0.000000 0.000000 0.000000 0.000000 0.000000 0.000000 10.000000 
L_front_hand02_01 0.000000 0.000000 0.000000 0.000000 0.000000 0.000000 10.000000 
L_front_hand03_01 0.000000 0.000000 0.000000 0.000000 0.000000 0.000000 10.000000 
L_front_hand01_02 0.000000 0.000000 0.000000 0.000000 0.000000 0.000000 10.000000 
L_front_hand02_02 0.000000 0.000000 0.000000 0.000000 0.000000 0.000000 10.000000 
L_front_hand03_02 0.000000 0.000000 0.000000 0.000000 0.000000 0.000000 10.000000 
R_forearm 0.000000 0.000000 0.000000 0.000000 0.000000 0.000000 10.000000 
R_front_hand 0.000000 0.000000 0.000000 0.000000 0.000000 0.000000 10.000000 
R_weapon_bone 0.000000 0.000000 0.000000 0.000000 0.000000 0.000000 10.000000 
R_front_hand01_01 0.000000 0.000000 0.000000 0.000000 0.000000 0.000000 10.000000 
R_front_hand02_01 0.000000 0.000000 0.000000 0.000000 0.000000 0.000000 10.000000 
R_front_hand03_01 0.000000 0.000000 0.000000 0.000000 0.000000 0.000000 10.000000 
R_front_hand01_02 0.000000 0.000000 0.000000 0.000000 0.000000 0.000000 10.000000 
R_front_hand02_02 0.000000 0.000000 0.000000 0.000000 0.000000 0.000000 10.000000 
R_front_hand03_02 0.000000 0.000000 0.000000 0.000000 0.000000 0.000000 10.000000 
null_rope01_connect 0.000000 0.000000 0.000000 0.000000 0.000000 0.000000 10.000000 
Rope1_Seg01 0.000000 0.000000 0.000000 0.000000 0.000000 0.000000 10.000000 
Rope1_Seg02 0.000000 0.000000 0.000000 0.000000 0.000000 0.000000 10.000000 
Rope1_Seg03 0.000000 0.000000 0.000000 0.000000 0.000000 0.000000 10.000000 
Rope1_Seg04 0.000000 0.000000 0.000000 0.000000 0.000000 0.000000 10.000000 
Rope1_Seg05 0.000000 0.000000 0.000000 0.000000 0.000000 0.000000 10.000000 
Rope1_Seg06 0.000000 0.000000 0.000000 0.000000 0.000000 0.000000 10.000000 
Rope1_Seg07 0.000000 0.000000 0.000000 0.000000 0.000000 0.000000 10.000000 
Rope1_Seg09 0.000000 0.000000 0.000000 0.000000 0.000000 0.000000 10.000000 
L_mid_hand01 0.000000 0.000000 0.000000 0.000000 0.000000 0.000000 10.000000 
L_mid_hand02 0.000000 0.000000 0.000000 0.000000 0.000000 0.000000 10.000000 
L_mid_hand03 0.000000 0.000000 0.000000 0.000000 0.000000 0.000000 10.000000 
null_rope02_connect 0.000000 0.000000 0.000000 0.000000 0.000000 0.000000 10.000000 
Rope2_Seg01 0.000000 0.000000 0.000000 0.000000 0.000000 0.000000 10.000000 
Rope2_Seg02 0.000000 0.000000 0.000000 0.000000 0.000000 0.000000 10.000000 
Rope2_Seg03 0.000000 0.000000 0.000000 0.000000 0.000000 0.000000 10.000000 
Rope2_Seg04 0.000000 0.000000 0.000000 0.000000 0.000000 0.000000 10.000000 
Rope2_Seg05 0.000000 0.000000 0.000000 0.000000 0.000000 0.000000 10.000000 
Rope2_Seg06 0.000000 0.000000 0.000000 0.000000 0.000000 0.000000 10.000000 
Rope2_Seg07 0.000000 0.000000 0.000000 0.000000 0.000000 0.000000 10.000000 
Rope2_Seg09 0.000000 0.000000 0.000000 0.000000 0.000000 0.000000 10.000000 
R_mid_hand01 0.000000 0.000000 0.000000 0.000000 0.000000 0.000000 10.000000 
R_mid_hand02 0.000000 0.000000 0.000000 0.000000 0.000000 0.000000 10.000000 
R_mid_hand03 0.000000 0.000000 0.000000 0.000000 0.000000 0.000000 10.000000 
spine02 0.000000 0.000000 0.000000 0.000000 0.000000 0.000000 10.000000 
spine03 0.000000 0.000000 0.000000 0.000000 0.000000 0.000000 10.000000 
pelvis 0.000000 0.000000 0.000000 0.000000 0.000000 0.000000 10.000000 
null_rope03_connect 0.000000 0.000000 0.000000 0.000000 0.000000 0.000000 10.000000 
null_rope04_connect 0.000000 0.000000 0.000000 0.000000 0.000000 0.000000 10.000000 
Rope3_Seg01 0.000000 0.000000 0.000000 0.000000 0.000000 0.000000 10.000000 
Rope3_Seg02 0.000000 0.000000 0.000000 0.000000 0.000000 0.000000 10.000000 
Rope3_Seg03 0.000000 0.000000 0.000000 0.000000 0.000000 0.000000 10.000000 
Rope3_Seg04 0.000000 0.000000 0.000000 0.000000 0.000000 0.000000 10.000000 
Rope3_Seg05 0.000000 0.000000 0.000000 0.000000 0.000000 0.000000 10.000000 
Rope3_Seg06 0.000000 0.000000 0.000000 0.000000 0.000000 0.000000 10.000000 
Rope3_Seg07 0.000000 0.000000 0.000000 0.000000 0.000000 0.000000 10.000000 
Rope3_Seg08 0.000000 0.000000 0.000000 0.000000 0.000000 0.000000 10.000000 
Rope3_Seg09 0.000000 0.000000 0.000000 0.000000 0.000000 0.000000 10.000000 
R_rear_hand01 0.000000 0.000000 0.000000 0.000000 0.000000 0.000000 10.000000 
R_rear_hand02 0.000000 0.000000 0.000000 0.000000 0.000000 0.000000 10.000000 
R_rear_hand03 0.000000 0.000000 0.000000 0.000000 0.000000 0.000000 10.000000 
Rope4_Seg01 0.000000 0.000000 0.000000 0.000000 0.000000 0.000000 10.000000 
Rope4_Seg02 0.000000 0.000000 0.000000 0.000000 0.000000 0.000000 10.000000 
Rope4_Seg03 0.000000 0.000000 0.000000 0.000000 0.000000 0.000000 10.000000 
Rope4_Seg04 0.000000 0.000000 0.000000 0.000000 0.000000 0.000000 10.000000 
Rope4_Seg05 0.000000 0.000000 0.000000 0.000000 0.000000 0.000000 10.000000 
Rope4_Seg06 0.000000 0.000000 0.000000 0.000000 0.000000 0.000000 10.000000 
Rope4_Seg07 0.000000 0.000000 0.000000 0.000000 0.000000 0.000000 10.000000 
Rope4_Seg08 0.000000 0.000000 0.000000 0.000000 0.000000 0.000000 10.000000 
Rope4_Seg09 0.000000 0.000000 0.000000 0.000000 0.000000 0.000000 10.000000 
L_rear_hand01 0.000000 0.000000 0.000000 0.000000 0.000000 0.000000 10.000000 
L_rear_hand02 0.000000 0.000000 0.000000 0.000000 0.000000 0.000000 10.000000 
L_rear_hand03 0.000000 0.000000 0.000000 0.000000 0.000000 0.000000 10.000000 
#Beginning of Data. Separated by tabs
#Fr	Tx	Ty	Tz	Rx	Ry	Rz	SF
[MASTER]
34 -0.001222 8159.390625 16.415443 0.001660 0.001660 0.001660 8159.406738
35 -0.001252 8358.666992 13.637444 0.001660 0.001660 0.001660 8358.678711
[root]
34 -84.629128 193.306885 1726.622559 -94.895607 -30.843870 -58.433220 1739.469849
35 -60.219273 126.804817 1636.174316 -91.706680 -30.515982 -66.542198 1642.185181
[chest]
34 -84.512650 -34.090519 0.000000 -4.784789 1.413524 177.132141 91.129311
35 -84.512650 -34.090519 0.000000 -4.148571 1.017896 174.916687 91.129311
[L_mid_tent01]
34 27.299227 22.179333 -249.918839 -22.342381 31.314045 17.507208 252.381836
35 27.299217 22.179392 -249.918869 -22.044409 26.228046 16.317043 252.381866
[R_mid_tent01]
34 23.228794 24.509907 226.238495 -176.157806 -15.686841 44.148232 228.744751
35 23.228794 24.509907 226.238495 -173.515900 -17.115652 39.291042 228.744751
[spine01]
34 -0.361383 -0.195265 0.000000 0.073417 0.033039 21.533121 0.410763
35 -0.361383 -0.195265 0.000000 0.055576 0.025046 21.662800 0.410763
[Bip01_Neck]
34 165.484543 71.581718 0.000119 175.896118 1.177290 24.871183 180.302734
35 165.484543 71.581718 0.000119 175.896118 1.177290 24.871183 180.302734
[L_humerus]
34 -13.983130 -135.272980 -120.471481 -6.384008 72.773087 83.672142 181.680161
35 -13.983130 -135.272980 -120.471481 -6.118907 71.789551 83.934937 181.680161
[R_humerus]
34 -13.983309 -135.273102 125.287651 -130.987976 -76.175446 -142.076416 184.909012
35 -13.983309 -135.273102 125.287651 -109.372353 -83.766052 -161.512680 184.909012
[weapon_bone]
34 235.964890 -300.705902 0.000000 0.000000 -89.951546 -128.212341 382.234833
35 235.964890 -300.705902 0.000000 0.000000 -89.951546 -128.212341 382.234833
[Bip01_Head]
34 242.044067 178.721008 -9.227295 -26.660509 10.250062 -58.227036 301.017700
35 246.518555 162.556458 -8.387451 -16.480410 8.703060 -59.709980 295.408783
[eye_left_bone]
34 -24.626970 125.451866 -64.772606 0.000000 -90.000000 -99.840431 143.318359
35 -24.626970 125.451866 -64.772606 0.000000 -90.000000 -99.840431 143.318359
[eye_right_bone]
34 -24.626970 125.451866 64.327362 0.000000 -89.960434 80.159386 143.117676
35 -24.626970 125.451866 64.327362 0.000000 -89.960434 80.159386 143.117676
[L_forearm]
34 322.776093 0.000000 -0.000119 0.000369 -0.002318 -108.107277 322.776093
35 322.776093 0.000000 -0.000119 0.000376 -0.002317 -108.417107 322.776093
[L_front_hand]
34 241.149185 -0.042021 -3.300071 -178.667953 -1.835447 -27.422350 241.171753
35 241.149185 -0.042021 -3.300071 -178.667953 -1.835447 -27.422350 241.171753
[L_weapon_bone]
34 156.183838 0.000000 0.000000 0.000014 0.000007 0.000001 156.183838
35 156.183838 0.000000 0.000000 0.000014 0.000007 0.000001 156.183838
[L_front_hand01_01]
34 86.095154 20.947098 -0.655860 -0.366594 -0.477154 75.385574 88.609184
35 86.095154 20.947098 -0.655860 -0.366594 -0.477154 75.385574 88.609184
[L_front_hand02_01]
34 86.935165 -11.437475 24.513514 154.403519 -59.888931 -61.371990 91.046425
35 86.935165 -11.437475 24.513514 154.403519 -59.888931 -61.371990 91.046425
[L_front_hand03_01]
34 86.637497 -14.123976 -20.424902 -153.913849 58.118122 -62.702866 90.126129
35 86.637497 -14.123976 -20.424902 -153.913849 58.118130 -62.702866 90.126129
[L_front_hand01_02]
34 71.020905 -0.000179 0.000030 0.000334 -0.002323 -106.379684 71.020905
35 71.020905 -0.000179 0.000030 0.000334 -0.002323 -106.379684 71.020905
[L_front_hand02_02]
34 71.020927 -0.000119 0.000060 0.000334 -0.002323 -106.379684 71.020927
35 71.020927 -0.000119 0.000060 0.000334 -0.002323 -106.379684 71.020927
[L_front_hand03_02]
34 71.020905 -0.000060 0.000060 0.000334 -0.002323 -106.379684 71.020905
35 71.020905 -0.000060 0.000060 0.000334 -0.002323 -106.379684 71.020905
[R_forearm]
34 322.776428 -0.000060 0.000030 0.203861 0.055897 -106.737312 322.776428
35 322.776428 -0.000060 0.000030 0.203698 0.056488 -107.069748 322.776428
[R_front_hand]
34 238.847015 -0.006795 2.210259 25.635983 9.433575 -40.510342 238.857239
35 238.847015 -0.006795 2.210259 17.645348 7.426548 -43.583939 238.857239
[R_weapon_bone]
34 155.664093 0.002503 -0.000030 0.003487 0.001180 -90.988930 155.664078
35 155.664093 0.002503 -0.000030 0.003487 0.001180 -90.988930 155.664078
[R_front_hand01_01]
34 87.624611 14.231146 22.918642 -154.633499 -59.950619 61.746044 91.683487
35 87.624611 14.231146 22.918642 -154.633499 -59.950619 61.746044 91.683487
[R_front_hand02_01]
34 89.356956 14.367283 -19.491137 154.602661 58.302849 63.744389 92.579636
35 89.356956 14.367283 -19.491137 154.602661 58.302849 63.744389 92.579636
[R_front_hand03_01]
34 87.286232 -22.307278 -0.143439 0.162155 -0.423168 -75.767921 90.091743
35 87.286232 -22.307278 -0.143439 0.162155 -0.423168 -75.767921 90.091743
[R_front_hand01_02]
34 71.020905 0.000060 0.000119 0.002323 -0.000334 106.381714 71.020905
35 71.020905 0.000060 0.000119 0.002323 -0.000334 106.381714 71.020905
[R_front_hand02_02]
34 71.020844 -0.000030 -0.000119 0.002323 -0.000334 106.381714 71.020836
35 71.020844 -0.000030 -0.000119 0.002323 -0.000334 106.381714 71.020836
[R_front_hand03_02]
34 71.020905 0.000000 0.000030 0.002323 -0.000334 106.381714 71.020905
35 71.020905 0.000000 0.000030 0.002323 -0.000334 106.381714 71.020905
[null_rope01_connect]
34 328.732483 0.000000 -0.000238 -160.385635 -70.441154 -96.321098 328.732483
35 328.732483 0.000000 -0.000238 -154.621368 -71.641640 -102.582741 328.732483
[Rope1_Seg01]
34 0.000000 0.000000 0.000000 24.613216 -6.609935 -105.786316 0.000000
35 0.000000 0.000000 0.000000 30.254261 -4.745649 -110.060951 0.000000
[Rope1_Seg02]
34 139.999863 -0.000179 0.000000 2.520523 5.058646 -7.786248 139.999863
35 139.999863 -0.000179 0.000000 0.045150 4.261859 -4.952259 139.999863
[Rope1_Seg03]
34 139.999924 0.000060 -0.000060 46.693565 9.609570 -18.925003 139.999924
35 139.999924 0.000060 -0.000060 5.203897 8.059663 -10.925753 139.999924
[Rope1_Seg04]
34 139.999924 -0.000060 -0.000119 111.441185 -9.720772 -31.724236 139.999924
35 139.999924 -0.000060 -0.000119 169.096481 12.944615 -17.578405 139.999924
[Rope1_Seg05]
34 139.999832 0.000119 -0.000060 20.004623 -54.125381 5.968599 139.999832
35 139.999832 0.000119 -0.000060 56.936779 -42.038628 -14.873171 139.999832
[Rope1_Seg06]
34 139.999954 0.000119 -0.000060 -6.999109 -30.901859 21.070942 139.999954
35 139.999954 0.000119 -0.000060 -6.315378 -29.265793 29.721638 139.999954
[Rope1_Seg07]
34 139.999985 0.000060 0.000000 -0.639771 -3.479676 2.054847 139.999985
35 139.999985 0.000060 0.000000 0.006605 0.001660 0.001660 139.999985
[Rope1_Seg09]
34 121.602913 0.000119 -0.000089 -89.793175 -1.359789 0.847147 121.602913
35 121.602913 0.000119 -0.000089 -89.793175 -1.359789 0.847147 121.602913
[L_mid_hand01]
34 103.859421 1.038730 8.195221 114.520287 -53.310486 -20.623234 104.187431
35 103.859421 1.038730 8.195221 114.520287 -53.310486 -20.623234 104.187431
[L_mid_hand02]
34 105.572853 -4.139662 -10.864139 -155.067673 38.166626 -52.448818 106.211075
35 105.572853 -4.139662 -10.864139 -155.067673 38.166626 -52.448818 106.211075
[L_mid_hand03]
34 104.641464 17.579376 -3.913581 -10.970130 15.317461 57.626949 106.179977
35 104.641464 17.579376 -3.913581 -10.970130 15.317461 57.626949 106.179977
[null_rope02_connect]
34 328.732849 0.000179 -0.000119 -94.677605 46.509407 10.472721 328.732849
35 328.732849 0.000179 -0.000119 -102.046974 50.874325 -0.513570 328.732849
[Rope2_Seg01]
34 0.000047 -0.000528 0.000136 -9.862013 -15.847918 -19.485178 0.000547
35 0.000049 -0.000548 0.000140 3.935277 -14.922557 -30.159458 0.000568
[Rope2_Seg02]
34 139.999741 -0.000060 -0.000119 -13.077619 9.676162 7.124869 139.999756
35 139.999741 -0.000060 -0.000119 -10.428084 8.741436 2.923604 139.999756
[Rope2_Seg03]
34 140.000107 0.000030 0.000000 -11.871406 4.363670 7.994559 140.000107
35 140.000107 0.000030 0.000000 -11.088430 4.870130 4.294524 140.000107
[Rope2_Seg04]
34 139.999802 0.000000 -0.000060 -10.096014 4.335228 6.374609 139.999802
35 139.999802 0.000000 -0.000060 -10.882381 5.170847 3.274105 139.999802
[Rope2_Seg05]
34 139.999985 -0.000060 0.000119 -17.330370 10.285594 7.757147 139.999985
35 139.999985 -0.000060 0.000119 -17.660109 8.707726 2.788126 139.999985
[Rope2_Seg06]
34 139.999893 -0.000030 -0.000119 -18.314837 6.466227 9.605237 139.999893
35 139.999893 -0.000030 -0.000119 -20.476305 5.509742 4.174734 139.999893
[Rope2_Seg07]
34 139.999893 0.000060 -0.000060 -12.139323 1.847270 8.059603 139.999893
35 139.999893 0.000060 -0.000060 -15.878317 2.376982 4.131445 139.999893
[Rope2_Seg09]
34 121.338966 0.000089 -0.000060 136.879395 0.546403 -1.506369 121.338966
35 121.338966 0.000089 -0.000060 136.879395 0.546403 -1.506368 121.338966
[R_mid_hand01]
34 104.680779 11.144459 -10.335981 -39.248650 29.171114 33.551922 105.778534
35 104.680779 11.144459 -10.335981 -39.248650 29.171114 33.551922 105.778534
[R_mid_hand02]
34 104.070427 2.443552 8.231699 71.586517 -38.253605 12.182658 104.424065
35 104.070427 2.443552 8.231699 71.586517 -38.253605 12.182658 104.424065
[R_mid_hand03]
34 106.028137 -11.221827 -5.996406 -168.987167 11.419018 -42.774643 106.788818
35 106.028137 -11.221827 -5.996406 -168.987167 11.419018 -42.774643 106.788818
[spine02]
34 129.756927 0.001550 0.000119 0.294842 -8.115692 -9.464988 129.756927
35 129.756927 0.001550 0.000119 0.335805 -7.059920 -10.362691 129.756927
[spine03]
34 78.602623 0.083931 -5.013797 1.771623 3.919414 14.612329 78.762405
35 78.605583 0.083281 -4.985095 1.803339 3.894976 15.094724 78.763542
[pelvis]
34 169.435242 0.051022 0.000000 -0.058976 -0.200749 12.783633 169.435257
35 169.435242 0.051022 0.000000 -0.059526 -0.193112 13.114475 169.435257
[null_rope03_connect]
34 -1.257226 -2.466202 137.391083 98.041824 -56.496754 -15.587900 137.418976
35 -1.257226 -2.466202 137.391083 93.140190 -64.175148 -11.908228 137.418976
[null_rope04_connect]
34 -1.259640 -2.480268 -137.844437 98.041824 -56.496754 -15.587900 137.872513
35 -1.259640 -2.480268 -137.844437 93.140190 -64.175148 -11.908228 137.872513
[Rope3_Seg01]
34 -0.000020 -0.000548 0.000000 -176.093750 -56.528027 -34.638138 0.000549
35 -0.000020 -0.000564 0.000000 -157.647339 -42.929989 -44.538372 0.000564
[Rope3_Seg02]
34 139.999924 -0.000119 0.000060 2.868436 -6.638403 -5.131735 139.999924
35 139.999924 -0.000119 0.000060 5.983376 -8.690232 0.887658 139.999924
[Rope3_Seg03]
34 139.999924 -0.000119 0.000119 6.985775 -11.645404 -11.355247 139.999924
35 139.999924 -0.000119 0.000119 7.986224 -10.353214 -0.085830 139.999924
[Rope3_Seg04]
34 139.999924 0.000119 0.000000 97.184998 -39.484589 -14.435784 139.999924
35 139.999924 0.000119 0.000000 22.828905 -25.971270 17.206253 139.999924
[Rope3_Seg05]
34 139.999924 -0.000238 0.000060 19.749317 0.088765 66.392967 139.999924
35 139.999924 -0.000238 0.000060 8.834920 -16.818796 41.385468 139.999924
[Rope3_Seg06]
34 139.999893 -0.000119 -0.000060 0.528552 3.854757 12.937744 139.999893
35 139.999893 -0.000119 -0.000060 0.586734 -2.805524 14.521638 139.999893
[Rope3_Seg07]
34 139.999771 0.000060 -0.000119 0.298757 1.017093 3.368008 139.999771
35 139.999771 0.000060 -0.000119 0.217229 -0.868898 4.863235 139.999771
[Rope3_Seg08]
34 139.999985 -0.000060 0.000000 0.525960 0.045551 0.135400 139.999985
35 139.999985 -0.000060 0.000000 0.495819 -0.089662 0.530468 139.999985
[Rope3_Seg09]
34 90.185997 -0.000179 -0.000060 159.792526 -1.358243 -0.846482 90.185997
35 90.185997 -0.000179 -0.000060 159.792526 -1.358243 -0.846482 90.185997
[R_rear_hand01]
34 103.366196 -6.073594 -10.757982 -177.714203 24.565960 -73.910950 104.101845
35 103.366196 -6.073594 -10.757982 -177.714203 24.565960 -73.910950 104.101845
[R_rear_hand02]
34 100.509819 12.039542 -7.992327 -12.874829 36.868488 72.167213 101.543350
35 100.509819 12.039542 -7.992327 -12.874829 36.868488 72.167213 101.543350
[R_rear_hand03]
34 101.539970 5.215704 5.435467 71.484581 -71.816628 21.513813 101.819031
35 101.539970 5.215704 5.435467 71.484581 -71.816628 21.513813 101.819031
[Rope4_Seg01]
34 -0.000002 -0.000553 -0.000153 49.491421 -11.351015 -119.496986 0.000573
35 -0.000002 -0.000567 -0.000153 46.973984 -3.342382 -114.194824 0.000587
[Rope4_Seg02]
34 139.999985 0.000060 0.000119 2.765211 7.125452 13.008805 139.999985
35 139.999985 0.000060 0.000119 1.379114 3.876217 9.715054 139.999985
[Rope4_Seg03]
34 139.999924 0.000000 -0.000238 0.703976 4.050776 8.754907 139.999924
35 139.999924 0.000000 -0.000238 0.328360 0.594395 5.698293 139.999924
[Rope4_Seg04]
34 139.999985 0.000000 0.000119 -0.010021 2.646671 5.707685 139.999985
35 139.999985 0.000000 0.000119 0.095483 0.735800 3.821129 139.999985
[Rope4_Seg05]
34 139.999802 -0.000060 -0.000119 0.022437 8.700974 8.298741 139.999802
35 139.999802 -0.000060 -0.000119 0.305667 7.677417 5.635543 139.999802
[Rope4_Seg06]
34 139.999924 0.000000 0.000060 -0.609389 13.593889 11.719379 139.999924
35 139.999924 0.000000 0.000060 0.591724 12.373180 7.548143 139.999924
[Rope4_Seg07]
34 139.999802 0.000000 0.000000 -2.594736 8.727346 8.593806 139.999802
35 139.999802 0.000000 0.000000 -0.225005 8.110070 5.550896 139.999802
[Rope4_Seg08]
34 139.999924 0.000000 0.000119 -4.674753 5.166946 5.694438 139.999924
35 139.999924 0.000000 0.000119 -2.050521 5.366809 3.778675 139.999924
[Rope4_Seg09]
34 90.185791 0.000060 0.000060 -135.617828 2.228885 0.850567 90.185791
35 90.185791 0.000060 0.000060 -135.617828 2.228885 0.850567 90.185791
[L_rear_hand01]
34 101.696655 -8.392275 -7.654577 -19.915020 -33.950905 119.950104 102.329041
35 101.696655 -8.392275 -7.654577 -19.915020 -33.950905 119.950104 102.329041
[L_rear_hand02]
34 102.726799 -1.568258 5.773216 77.862221 61.878510 165.399200 102.900848
35 102.726799 -1.568258 5.773216 77.862221 61.878510 165.399200 102.900848
[L_rear_hand03]
34 104.552910 9.721220 -10.420293 -173.099182 -23.740307 -117.327896 105.519653
35 104.552910 9.721220 -10.420293 -173.099182 -23.740307 -117.327896 105.519653
